HIERARCHY
ROOT hips
{
	OFFSET -0.003675 0.299928 -0.021708
	CHANNELS 6 Xposition Yposition Zposition Xrotation Yrotation Zrotation
	JOINT LowerBack
	{
		OFFSET 0.000919 0.177588 0.009275
		CHANNELS 3 Xrotation Yrotation Zrotation
		JOINT spine
		{
			OFFSET 0.000919 0.177588 0.009275
			CHANNELS 3 Xrotation Yrotation Zrotation
			JOINT chest
			{
				OFFSET 0.000456 0.100015 0.004638
				CHANNELS 3 Xrotation Yrotation Zrotation
				JOINT neck
				{
					OFFSET 0.000456 0.100015 0.004638
					CHANNELS 3 Xrotation Yrotation Zrotation
					JOINT head
					{
						OFFSET 0.000924 0.155147 0.009274
						CHANNELS 6 Xposition Yposition Zposition Xrotation Yrotation Zrotation
						End Site
						{
							OFFSET 0.000000 0.153400 0.000000
						}
					}
				}
				JOINT shoulder.L
				{
					OFFSET 0.019937 0.078966 0.057518
					CHANNELS 6 Xposition Yposition Zposition Yrotation Xrotation Zrotation
					JOINT upper_arm.L
					{
						OFFSET 0.177024 -0.020465 -0.095062
						CHANNELS 6 Xposition Yposition Zposition Xrotation Yrotation Zrotation
						JOINT forearm.L
						{
							OFFSET 0.247100 -0.135500 -0.061800
							CHANNELS 3 Xrotation Yrotation Zrotation
							JOINT hand.L
							{
								OFFSET 0.217000 -0.143000 0.039300
								CHANNELS 3 Xrotation Yrotation Zrotation
								JOINT palm.01.L
								{
									OFFSET 0.021770 -0.038291 0.012954
									CHANNELS 6 Xposition Yposition Zposition Yrotation Xrotation Zrotation
									JOINT f_index.01.L
									{
										OFFSET 0.053215 -0.044137 0.008236
										CHANNELS 3 Xrotation Yrotation Zrotation
										JOINT f_index.02.L
										{
											OFFSET 0.036108 -0.024723 -0.010656
											CHANNELS 3 Xrotation Yrotation Zrotation
											JOINT f_index.03.L
											{
												OFFSET 0.021342 -0.014948 -0.010846
												CHANNELS 3 Xrotation Yrotation Zrotation
												End Site
												{
													OFFSET 0.015600 -0.009860 -0.013421
												}
											}
										}
									}
									JOINT thumb.01.L
									{
										OFFSET -0.009090 -0.002348 -0.024223
										CHANNELS 6 Xposition Yposition Zposition Xrotation Yrotation Zrotation
										JOINT thumb.02.L
										{
											OFFSET 0.019713 -0.035076 -0.011120
											CHANNELS 3 Xrotation Yrotation Zrotation
											JOINT thumb.03.L
											{
												OFFSET 0.024877 -0.021748 -0.005176
												CHANNELS 3 Xrotation Yrotation Zrotation
												End Site
												{
													OFFSET 0.016125 -0.013029 -0.001569
												}
											}
										}
									}
								}
								JOINT palm.02.L
								{
									OFFSET 0.032823 -0.025104 0.012281
									CHANNELS 6 Xposition Yposition Zposition Yrotation Xrotation Zrotation
									JOINT f_middle.01.L
									{
										OFFSET 0.055723 -0.038469 0.008037
										CHANNELS 3 Xrotation Yrotation Zrotation
										JOINT f_middle.02.L
										{
											OFFSET 0.038167 -0.027473 -0.015582
											CHANNELS 3 Xrotation Yrotation Zrotation
											JOINT f_middle.03.L
											{
												OFFSET 0.021707 -0.016587 -0.017037
												CHANNELS 3 Xrotation Yrotation Zrotation
												End Site
												{
													OFFSET 0.014112 -0.010584 -0.014294
												}
											}
										}
									}
								}
								JOINT palm.03.L
								{
									OFFSET 0.039230 -0.011402 0.008390
									CHANNELS 6 Xposition Yposition Zposition Yrotation Xrotation Zrotation
									JOINT f_ring.01.L
									{
										OFFSET 0.061796 -0.031470 0.007910
										CHANNELS 3 Xrotation Yrotation Zrotation
										JOINT f_ring.02.L
										{
											OFFSET 0.033092 -0.023401 -0.019127
											CHANNELS 3 Xrotation Yrotation Zrotation
											JOINT f_ring.03.L
											{
												OFFSET 0.021392 -0.015362 -0.017824
												CHANNELS 3 Xrotation Yrotation Zrotation
												End Site
												{
													OFFSET 0.008670 -0.007297 -0.014686
												}
											}
										}
									}
								}
								JOINT palm.04.L
								{
									OFFSET 0.043417 0.002450 0.002889
									CHANNELS 6 Xposition Yposition Zposition Yrotation Xrotation Zrotation
									JOINT f_pinky.01.L
									{
										OFFSET 0.069986 -0.026156 0.003627
										CHANNELS 3 Xrotation Yrotation Zrotation
										JOINT f_pinky.02.L
										{
											OFFSET 0.018520 -0.012813 -0.016429
											CHANNELS 3 Xrotation Yrotation Zrotation
											JOINT f_pinky.03.L
											{
												OFFSET 0.013822 -0.009796 -0.014947
												CHANNELS 3 Xrotation Yrotation Zrotation
												End Site
												{
													OFFSET 0.007238 -0.006103 -0.011657
												}
											}
										}
									}
								}
							}
						}
					}
				}
				JOINT shoulder.R
				{
					OFFSET -0.016662 0.078957 0.057696
					CHANNELS 6 Xposition Yposition Zposition Yrotation Xrotation Zrotation
					JOINT upper_arm.R
					{
						OFFSET -0.176972 -0.020537 -0.095144
						CHANNELS 6 Xposition Yposition Zposition Xrotation Yrotation Zrotation
						JOINT forearm.R
						{
							OFFSET -0.247100 -0.135500 -0.061800
							CHANNELS 3 Xrotation Yrotation Zrotation
							JOINT hand.R
							{
								OFFSET -0.217000 -0.143000 0.039300
								CHANNELS 3 Xrotation Yrotation Zrotation
								JOINT palm.01.R
								{
									OFFSET -0.021773 -0.038278 0.012988
									CHANNELS 6 Xposition Yposition Zposition Yrotation Xrotation Zrotation
									JOINT f_index.01.R
									{
										OFFSET -0.053212 -0.044139 0.008249
										CHANNELS 3 Xrotation Yrotation Zrotation
										JOINT f_index.02.R
										{
											OFFSET -0.036049 -0.024835 -0.010634
											CHANNELS 3 Xrotation Yrotation Zrotation
											JOINT f_index.03.R
											{
												OFFSET -0.021371 -0.014881 -0.010866
												CHANNELS 3 Xrotation Yrotation Zrotation
												End Site
												{
													OFFSET -0.015584 -0.009883 -0.013422
												}
											}
										}
									}
									JOINT thumb.01.R
									{
										OFFSET 0.009113 -0.002381 -0.024211
										CHANNELS 6 Xposition Yposition Zposition Xrotation Yrotation Zrotation
										JOINT thumb.02.R
										{
											OFFSET -0.019694 -0.035097 -0.011088
											CHANNELS 3 Xrotation Yrotation Zrotation
											JOINT thumb.03.R
											{
												OFFSET -0.024867 -0.021762 -0.005168
												CHANNELS 3 Xrotation Yrotation Zrotation
												End Site
												{
													OFFSET -0.016120 -0.013036 -0.001565
												}
											}
										}
									}
								}
								JOINT palm.02.R
								{
									OFFSET -0.032828 -0.025095 0.012286
									CHANNELS 6 Xposition Yposition Zposition Yrotation Xrotation Zrotation
									JOINT f_middle.01.R
									{
										OFFSET -0.055721 -0.038472 0.008040
										CHANNELS 3 Xrotation Yrotation Zrotation
										JOINT f_middle.02.R
										{
											OFFSET -0.038101 -0.027593 -0.015557
											CHANNELS 3 Xrotation Yrotation Zrotation
											JOINT f_middle.03.R
											{
												OFFSET -0.021730 -0.016530 -0.017054
												CHANNELS 3 Xrotation Yrotation Zrotation
												End Site
												{
													OFFSET -0.014096 -0.010608 -0.014293
												}
											}
										}
									}
								}
								JOINT palm.03.R
								{
									OFFSET -0.039192 -0.011488 0.008390
									CHANNELS 6 Xposition Yposition Zposition Yrotation Xrotation Zrotation
									JOINT f_ring.01.R
									{
										OFFSET -0.061839 -0.031387 0.007876
										CHANNELS 3 Xrotation Yrotation Zrotation
										JOINT f_ring.02.R
										{
											OFFSET -0.033068 -0.023437 -0.019125
											CHANNELS 3 Xrotation Yrotation Zrotation
											JOINT f_ring.03.R
											{
												OFFSET -0.021371 -0.015393 -0.017822
												CHANNELS 3 Xrotation Yrotation Zrotation
												End Site
												{
													OFFSET -0.008654 -0.007321 -0.014684
												}
											}
										}
									}
								}
								JOINT palm.04.R
								{
									OFFSET -0.043421 0.002443 0.002845
									CHANNELS 6 Xposition Yposition Zposition Yrotation Xrotation Zrotation
									JOINT f_pinky.01.R
									{
										OFFSET -0.069983 -0.026169 0.003599
										CHANNELS 3 Xrotation Yrotation Zrotation
										JOINT f_pinky.02.R
										{
											OFFSET -0.018501 -0.012842 -0.016428
											CHANNELS 3 Xrotation Yrotation Zrotation
											JOINT f_pinky.03.R
											{
												OFFSET -0.013806 -0.009821 -0.014946
												CHANNELS 3 Xrotation Yrotation Zrotation
												End Site
												{
													OFFSET -0.007226 -0.006121 -0.011655
												}
											}
										}
									}
								}
							}
						}
					}
				}
			}
		}
	}
	JOINT pelvis.L
	{
		OFFSET 0.000000 0.000000 0.000000
		CHANNELS 6 Xposition Yposition Zposition Xrotation Yrotation Zrotation
		JOINT thigh.L
		{
			OFFSET 0.101675 0.001054 -0.000000
			CHANNELS 3 Xrotation Yrotation Zrotation
			JOINT shin.L
			{
				OFFSET 0.000000 -0.534800 0.041000
				CHANNELS 3 Xrotation Yrotation Zrotation
				JOINT foot.L
				{
					OFFSET 0.000000 -0.452000 -0.044800
					CHANNELS 3 Xrotation Yrotation Zrotation
					JOINT toe.L
					{
						OFFSET -0.000000 -0.068500 0.109600
						CHANNELS 3 Xrotation Yrotation Zrotation
						End Site
						{
							OFFSET -0.000000 0.000000 0.067200
						}
					}
				}
				JOINT heel.L
				{
					OFFSET 0.000000 -0.452000 -0.044800
					CHANNELS 3 Xrotation Yrotation Zrotation
					JOINT heel.02.L
					{
						OFFSET -0.038000 -0.085200 0.016200
						CHANNELS 6 Xposition Yposition Zposition Xrotation Yrotation Zrotation
						End Site
						{
							OFFSET 0.080000 -0.000000 0.000000
						}
					}
				}
			}
		}
	}
	JOINT pelvis.R
	{
		OFFSET 0.000000 0.000000 0.000000
		CHANNELS 6 Xposition Yposition Zposition Xrotation Yrotation Zrotation
		JOINT thigh.R
		{
			OFFSET -0.094325 0.001054 0.000000
			CHANNELS 3 Xrotation Yrotation Zrotation
			JOINT shin.R
			{
				OFFSET 0.000000 -0.534800 0.041000
				CHANNELS 3 Xrotation Yrotation Zrotation
				JOINT foot.R
				{
					OFFSET 0.000000 -0.452000 -0.044800
					CHANNELS 3 Xrotation Yrotation Zrotation
					JOINT toe.R
					{
						OFFSET -0.000000 -0.068500 0.109600
						CHANNELS 3 Xrotation Yrotation Zrotation
						End Site
						{
							OFFSET -0.000000 0.000000 0.067200
						}
					}
				}
				JOINT heel.R
				{
					OFFSET 0.000000 -0.452000 -0.044800
					CHANNELS 3 Xrotation Yrotation Zrotation
					JOINT heel.02.R
					{
						OFFSET 0.038000 -0.085200 0.016200
						CHANNELS 6 Xposition Yposition Zposition Xrotation Yrotation Zrotation
						End Site
						{
							OFFSET -0.080000 0.000000 -0.000000
						}
					}
				}
			}
		}
	}
}
MOTION
Frames: 4
Frame Time: 0.041667
-0.003675 0.299928 -0.021708 0.000000 -0.000000 0.000000 -0.000001 0.000000 0.000000 -0.000000 0.000000 0.000000 -0.000000 0.000000 0.000000 -0.000000 -0.000000 -0.000000 0.000924 0.155147 0.009274 -0.000001 -0.000000 -0.000000 0.019937 0.078966 0.057518 0.000001 0.000001 -0.000005 0.177024 -0.020465 -0.095062 -0.000006 -0.000003 0.000015 -0.000009 -0.000004 -0.000009 -0.000000 0.000000 0.000001 0.021770 -0.038291 0.012954 0.000001 -0.000001 0.000001 -0.000001 -0.000001 -0.000002 -0.000001 -0.000000 0.000007 -0.000000 0.000000 0.000003 -0.009090 -0.002348 -0.024224 -0.000002 0.000001 0.000001 0.000001 -0.000001 0.000001 -0.000000 0.000000 -0.000001 0.032823 -0.025104 0.012281 0.000000 -0.000000 0.000000 0.000001 0.000004 -0.000003 -0.000001 -0.000000 -0.000000 -0.000001 -0.000003 0.000003 0.039230 -0.011402 0.008390 -0.000000 -0.000000 0.000008 0.000001 0.000001 -0.000000 -0.000001 0.000003 -0.000001 0.000002 0.000002 -0.000000 0.043417 0.002450 0.002889 -0.000000 0.000001 0.000002 -0.000001 -0.000003 0.000001 -0.000000 0.000003 -0.000000 -0.000000 -0.000003 0.000001 -0.016662 0.078956 0.057696 -0.000001 0.000002 0.000011 -0.176972 -0.020537 -0.095144 0.000001 -0.000003 -0.000005 -0.000006 0.000005 -0.000014 -0.000001 -0.000000 0.000000 -0.021773 -0.038278 0.012988 0.000000 -0.000001 -0.000003 -0.000001 0.000001 -0.000003 -0.000001 -0.000000 0.000001 0.000001 0.000002 0.000007 0.009113 -0.002381 -0.024211 0.000002 -0.000001 0.000004 -0.000000 0.000001 0.000002 0.000000 0.000000 -0.000003 -0.032828 -0.025095 0.012286 0.000001 -0.000001 -0.000001 -0.000001 0.000003 -0.000003 -0.000002 0.000004 -0.000001 0.000001 -0.000002 -0.000000 -0.039192 -0.011488 0.008390 0.000000 0.000000 0.000001 -0.000000 0.000003 -0.000003 -0.000001 0.000001 0.000002 -0.000001 0.000000 -0.000003 -0.043421 0.002443 0.002844 -0.000000 -0.000001 0.000000 -0.000007 0.000003 -0.000002 -0.000003 -0.000000 -0.000000 0.000001 -0.000000 0.000001 -0.000000 0.000000 -0.000000 -0.000001 -0.000000 0.000001 0.000009 -0.000202 0.000014 -0.000026 0.000202 -0.000015 0.000000 -0.000000 -0.000000 0.000002 -0.000000 -0.000000 0.000000 0.000000 -0.000000 -0.038000 -0.085200 0.016200 0.000000 0.000000 0.000000 0.000000 -0.000000 -0.000000 -0.000001 0.000000 -0.000004 0.000008 -0.000013 0.000005 -0.000012 0.000013 -0.000001 -0.000003 -0.000000 -0.000000 0.000000 -0.000000 -0.000000 0.000002 -0.000000 -0.000000 0.038000 -0.085200 0.016200 0.000002 -0.000000 0.000000 
-0.008515 0.297241 -0.013854 13.406362 -66.596667 12.392851 -0.000001 -0.000001 -0.000000 -0.000001 -0.000001 0.000000 -0.000000 -0.000001 0.000001 -0.000000 0.000001 0.000000 0.000924 0.155147 0.009274 21.570052 -0.014448 0.573155 0.019937 0.078966 0.057518 2.154871 7.321983 33.426113 0.177024 -0.020465 -0.095062 5.741937 9.760859 -72.062430 1.818708 -1.384023 -16.692385 -0.000003 0.000002 0.000001 0.021770 -0.038291 0.012954 0.000001 -0.000003 0.000005 -0.000002 0.000001 0.000003 -0.000001 -0.000004 0.000003 0.000004 0.000001 -0.000000 -0.009090 -0.002348 -0.024224 0.000002 -0.000003 0.000002 0.000000 0.000000 0.000001 -0.000005 0.000006 -0.000002 0.032823 -0.025104 0.012281 0.000000 -0.000000 0.000005 -0.000001 0.000003 -0.000007 -0.000003 -0.000003 0.000001 -0.000000 0.000003 0.000003 0.039230 -0.011402 0.008390 0.000004 -0.000002 0.000004 0.000003 0.000001 0.000005 -0.000001 0.000006 0.000006 -0.000002 -0.000004 0.000002 0.043417 0.002450 0.002889 -0.000000 -0.000000 0.000002 0.000002 -0.000006 -0.000000 -0.000000 -0.000003 0.000001 -0.000004 -0.000003 -0.000001 -0.016662 0.078956 0.057696 -15.278851 7.147738 -25.441181 -0.176972 -0.020537 -0.095144 -1.126284 -10.403770 61.764397 3.316390 -1.767264 8.984734 0.000002 0.000001 -0.000002 -0.021773 -0.038278 0.012988 -0.000000 -0.000002 -0.000002 -0.000001 0.000002 0.000002 -0.000002 0.000001 -0.000001 0.000001 0.000000 0.000004 0.009113 -0.002381 -0.024211 -0.000001 -0.000000 0.000001 0.000001 -0.000002 -0.000001 0.000000 -0.000001 -0.000001 -0.032828 -0.025095 0.012286 0.000001 0.000000 -0.000006 0.000002 0.000001 0.000001 0.000003 -0.000001 -0.000001 -0.000006 0.000002 -0.000007 -0.039192 -0.011488 0.008390 0.000001 0.000000 -0.000000 0.000001 0.000001 0.000000 0.000003 0.000000 -0.000001 0.000002 -0.000005 -0.000002 -0.043421 0.002443 0.002845 0.000001 -0.000000 0.000002 -0.000004 0.000004 0.000001 -0.000002 -0.000003 0.000003 -0.000006 0.000005 0.000001 -0.000000 0.000000 -0.000000 -1.140218 0.411874 -6.738343 -1.130856 -0.321918 -3.900034 11.267090 0.082157 -0.826799 -0.000003 0.000001 0.000000 -0.000000 0.000001 -0.000003 -0.000002 0.000003 -0.000000 -0.038000 -0.085200 0.016200 0.000001 -0.000001 -0.000001 -0.000000 -0.000000 0.000000 -1.104398 0.408018 -5.504429 -0.010688 0.319107 3.860758 16.541350 1.165800 -11.847340 0.000000 0.000002 0.000003 0.000002 0.000003 -0.000003 0.000005 0.000000 -0.000000 0.038000 -0.085200 0.016200 -0.000001 -0.000001 0.000001 
-0.008370 0.296468 -0.014605 17.412589 -72.064902 15.734630 -0.000001 0.000002 0.000000 0.000001 0.000002 0.000000 0.000000 0.000001 -0.000000 0.000000 0.000000 0.000000 0.000924 0.155147 0.009274 23.133323 -0.014573 0.205702 0.019937 0.078966 0.057518 2.986454 7.184186 33.142783 0.177024 -0.020465 -0.095062 7.548179 9.715745 -71.786354 2.311299 -1.366871 -18.797703 -0.000001 -0.000001 -0.000004 0.021770 -0.038291 0.012954 0.000001 0.000005 0.000001 -0.000002 -0.000001 0.000003 -0.000003 -0.000002 0.000006 -0.000003 0.000000 -0.000001 -0.009090 -0.002348 -0.024224 -0.000004 0.000000 0.000003 0.000000 0.000000 -0.000000 0.000001 0.000002 -0.000002 0.032823 -0.025104 0.012281 0.000001 -0.000001 0.000004 -0.000001 0.000002 -0.000002 -0.000006 0.000000 0.000001 0.000003 0.000003 0.000001 0.039230 -0.011402 0.008390 0.000002 -0.000000 0.000006 0.000001 0.000004 -0.000000 -0.000003 0.000006 -0.000004 0.000003 -0.000004 0.000003 0.043417 0.002450 0.002889 0.000001 0.000001 -0.000003 0.000001 0.000001 -0.000000 -0.000002 0.000001 0.000001 -0.000000 0.000001 0.000001 -0.016662 0.078956 0.057696 -15.170270 7.144027 -25.945242 -0.176972 -0.020537 -0.095144 -0.625123 -10.401562 61.379796 1.461666 0.711937 11.394508 -0.000001 0.000002 -0.000002 -0.021773 -0.038278 0.012988 -0.000000 -0.000002 -0.000003 -0.000002 0.000001 -0.000001 0.000001 -0.000000 0.000001 0.000001 -0.000003 -0.000000 0.009113 -0.002381 -0.024212 -0.000000 -0.000002 0.000000 0.000000 -0.000002 -0.000001 0.000000 0.000003 -0.000001 -0.032828 -0.025095 0.012286 0.000001 -0.000001 -0.000003 0.000002 0.000003 0.000004 0.000001 -0.000003 0.000001 -0.000003 0.000005 0.000001 -0.039192 -0.011488 0.008390 -0.000001 0.000001 0.000005 0.000001 0.000002 0.000004 0.000002 -0.000000 0.000002 -0.000001 -0.000000 -0.000004 -0.043421 0.002442 0.002845 0.000002 0.000000 -0.000003 -0.000001 0.000004 -0.000001 -0.000003 -0.000003 0.000003 0.000001 0.000001 0.000006 0.000000 0.000000 -0.000000 -1.167666 0.364014 -6.046123 -2.197677 -0.289597 -3.423247 14.329593 0.136897 -1.379234 0.000000 0.000001 -0.000000 -0.000002 0.000002 -0.000001 0.000002 -0.000001 0.000001 -0.038000 -0.085200 0.016200 0.000002 0.000002 -0.000001 0.000000 0.000000 -0.000000 -1.132528 0.360659 -4.812176 -1.002806 0.314873 3.741123 18.579790 1.082708 -10.991793 -0.000003 -0.000000 0.000002 0.000005 0.000000 -0.000000 0.000007 -0.000002 0.000002 0.038000 -0.085200 0.016200 -0.000003 0.000004 0.000001 
-0.008181 0.295819 -0.015400 22.010882 -71.055455 20.963860 -0.000001 -0.000001 -0.000000 0.000000 0.000000 -0.000000 0.000000 -0.000001 0.000000 0.000001 -0.000004 0.000000 0.000924 0.155147 0.009274 19.861053 -0.015211 -0.692136 0.019937 0.078966 0.057518 3.078745 7.115668 33.062227 0.177024 -0.020465 -0.095062 7.284104 10.016744 -70.556127 0.071186 -3.278419 -20.194716 0.000002 -0.000001 -0.000004 0.021770 -0.038291 0.012954 0.000000 0.000000 0.000001 0.000001 0.000001 -0.000004 0.000002 -0.000002 0.000006 0.000000 0.000003 -0.000002 -0.009090 -0.002348 -0.024224 0.000002 -0.000001 -0.000005 -0.000003 -0.000002 0.000001 -0.000001 0.000000 0.000003 0.032823 -0.025104 0.012281 0.000000 -0.000001 0.000007 0.000003 -0.000002 -0.000005 -0.000003 -0.000003 0.000001 -0.000001 0.000004 0.000004 0.039230 -0.011402 0.008390 -0.000000 0.000000 0.000008 0.000003 -0.000002 -0.000000 0.000001 0.000000 -0.000001 -0.000000 -0.000001 0.000003 0.043417 0.002450 0.002889 -0.000000 0.000001 0.000005 -0.000006 -0.000003 -0.000002 0.000002 0.000001 0.000003 -0.000001 0.000000 -0.000002 -0.016662 0.078956 0.057696 -13.815653 6.872848 -26.096526 -0.176972 -0.020537 -0.095144 -0.542606 -10.499770 61.386714 0.725789 1.622224 12.386149 -0.000001 0.000001 0.000002 -0.021773 -0.038278 0.012988 0.000001 -0.000000 -0.000003 -0.000002 0.000000 -0.000005 -0.000001 0.000001 -0.000004 0.000002 -0.000002 0.000003 0.009114 -0.002381 -0.024212 0.000001 -0.000003 -0.000001 0.000001 0.000000 0.000005 0.000002 -0.000001 -0.000006 -0.032828 -0.025095 0.012286 0.000001 -0.000000 -0.000001 0.000001 0.000001 -0.000003 -0.000003 0.000003 0.000005 -0.000006 0.000006 -0.000003 -0.039192 -0.011488 0.008390 0.000000 0.000001 0.000003 -0.000002 0.000001 -0.000002 0.000000 -0.000000 -0.000000 0.000004 0.000003 -0.000003 -0.043421 0.002443 0.002845 -0.000001 -0.000000 0.000002 -0.000005 0.000000 0.000001 0.000002 -0.000005 -0.000003 0.000001 -0.000000 -0.000000 0.000000 0.000000 -0.000000 -1.177868 0.351498 -5.862610 -4.868977 -0.307906 -3.525296 17.196936 0.144957 -1.460551 0.000000 0.000002 -0.000002 -0.000004 0.000000 -0.000001 0.000002 0.000001 -0.000001 -0.038000 -0.085200 0.016200 -0.000004 -0.000002 -0.000001 0.000000 0.000000 -0.000000 -1.142829 0.348269 -4.628654 -2.691662 0.325663 3.771681 19.900982 1.097570 -11.144575 -0.000002 -0.000003 -0.000000 0.000001 0.000000 -0.000001 0.000003 -0.000001 0.000000 0.038000 -0.085200 0.016200 -0.000004 -0.000001 -0.000002 
